<svg xmlns="http://www.w3.org/2000/svg" width="32" height="26" viewBox="0 0 32 26"><path fill="#1b1b1b" d="M30 0H2C.896 0 0 .908 0 2.028v18.257c0 1.12.896 2.028 2 2.028h5c.641 0 1-.834 1-1.014 0-.186-.34-1.028-1-1.028H3.22a1.22 1.22 0 0 1-1.21-1.228V3.301c0-.678.542-1.227 1.21-1.227l25.571-.032c.668 0 1.21.549 1.21 1.227v15.775a1.22 1.22 0 0 1-1.21 1.228h-12.6l2.375-2.184c.292-.284.387-.742.095-1.025l-.171-.256a.765.765 0 0 0-1.058 0l-4.055 3.754c-.006.005-.012.007-.017.012l-.265.257a.708.708 0 0 0-.218.514.71.71 0 0 0 .218.517l.265.257c.005.005.012.006.017.011l3.992 3.66a.763.763 0 0 0 1.058 0l.171-.255c.292-.283.197-.743-.095-1.026l-2.41-2.192H30c1.104 0 2-.908 2-2.028V2.028C32 .908 31.104 0 30 0z"/></svg>