<svg xmlns="http://www.w3.org/2000/svg" width="32" height="32" viewBox="0 0 32 32"><path fill-rule="evenodd" fill="#1b1b1b" d="M30 2.993h-8.007V1a1 1 0 1 0-2 0v1.992h-8V1a1 1 0 1 0-2 0v1.992H2a2 2 0 0 0-2 2V30a2 2 0 0 0 2 2h28a2 2 0 0 0 2-2V4.993a2 2 0 0 0-2-2zM30 30H2V4.993h7.993v1.008a1 1 0 1 0 2 0V4.993h8v1.008a1 1 0 1 0 2 0V4.993H30V30zm-7-14.004h2a1 1 0 0 0 1-1v-2.001a1 1 0 0 0-1-1h-2a1 1 0 0 0-1 1v2.001a1 1 0 0 0 1 1zm0 8.002h2a1 1 0 0 0 1-1v-2.001a1 1 0 0 0-1-1h-2a1 1 0 0 0-1 1v2.001a1 1 0 0 0 1 1zm-6-4.001h-2a1 1 0 0 0-1 1v2.001a1 1 0 0 0 1 1h2a1 1 0 0 0 1-1v-2.001a1 1 0 0 0-1-1zm0-8.002h-2a1 1 0 0 0-1 1v2.001a1 1 0 0 0 1 1h2a1 1 0 0 0 1-1v-2.001a1 1 0 0 0-1-1zm-8 0H7a1 1 0 0 0-1 1v2.001a1 1 0 0 0 1 1h2a1 1 0 0 0 1-1v-2.001a1 1 0 0 0-1-1zm0 8.002H7a1 1 0 0 0-1 1v2.001a1 1 0 0 0 1 1h2a1 1 0 0 0 1-1v-2.001a1 1 0 0 0-1-1z"/></svg>