<svg xmlns="http://www.w3.org/2000/svg" width="32" height="28" viewBox="0 0 32 28"><path fill="#1b1b1b" d="M16 2c7.72 0 14 4.486 14 10s-6.28 10-14 10l-.473.002-.355.001a8.75 8.75 0 0 1-1.471-.099l-1.121-.16-.719.87c-.331.399-2.017 1.785-3.878 2.677.378-1.001.658-2.094.683-3.175l.01-.06v-1.395l-1.089-.557C4.036 18.29 2 15.336 2 12 2 6.486 8.28 2 16 2m0-2C7.163 0 0 5.373 0 12c0 4.127 2.445 7.724 6.674 9.886 0 .025-.008.044-.008.072 0 1.793-1.005 3.765-1.594 4.779h.001A.904.904 0 0 0 5.906 28c.076 0 .195-.016.24-.016.01 0 .017 0 .016.003 3.125-.511 6.561-3.271 7.245-4.104.703.104 1.177.12 1.765.12.247 0 .515-.003.828-.003 8.836 0 16-5.372 16-12 0-6.627-7.164-12-16-12z"/></svg>