<svg xmlns="http://www.w3.org/2000/svg" width="32" height="22" viewBox="0 0 32 22"><path fill="#1b1b1b" d="M16.108 5.054a5.99 5.99 0 1 0-.001 11.98 5.99 5.99 0 0 0 .001-11.98zm0 9.983c-2.202 0-4.04-1.835-4.04-4.037a3.999 3.999 0 0 1 3.994-3.993A4 4 0 0 1 20.057 11c0 2.202-1.746 4.037-3.949 4.037zm15.858-4.269c-.012-.05-.006-.104-.021-.153-.006-.021-.02-.033-.026-.051-.011-.027-.008-.062-.022-.089C28.991 3.827 22.732 0 16.063 0S3.008 3.82.103 10.469c-.013.027-.011.057-.021.089-.007.018-.021.029-.028.047-.016.051-.009.104-.019.154-.018.09-.035.178-.035.267 0 .093.017.179.036.269.01.05.003.104.019.152.006.022.021.032.028.052.01.028.008.062.021.089C3.008 18.236 9.33 22 16 22c6.671 0 12.991-3.757 15.896-10.404.015-.028.012-.059.022-.09.007-.018.021-.03.026-.05.016-.048.01-.102.021-.152.018-.089.035-.177.035-.269 0-.09-.017-.177-.034-.267zM16 20.003c-5.657 0-11.225-2.98-13.96-8.975 2.709-5.973 8.352-9.032 14.023-9.032 5.669 0 11.186 3.063 13.896 9.039-2.709 5.972-8.288 8.968-13.959 8.968z"/></svg>