<svg xmlns="http://www.w3.org/2000/svg" width="26" height="32" viewBox="0 0 26 32"><path fill="#3d4042" d="M12.9 32C5.3 32 0 26.8 0 19.6c0-3.8 2.3-8 2.4-8.1.2-.4.6-.5 1-.5.4.1.7.3.8.7 0 0 .6 2.3 1.4 3.6.5.9 1.1 1.5 1.7 1.9-.3-1.9-.7-4.6-.1-7.4C8.6 2 14.7.1 15 0c.3-.1.7 0 1 .2.3.2.4.6.3.9 0 .1-1 5.5 1.1 10.1.2.4.5.9.8 1.4.1-.7.2-1.4.4-2.1.8-2.8 2.8-3.7 2.9-3.7.3-.2.7-.1 1 .1.3.2.4.6.4 1 0 .1-.3 1.9 1.3 4.6 1.4 2.4 1.9 4 1.9 6.9C26 26.8 20.5 32 12.9 32zM3.1 14.6C2.6 16 2 17.8 2 19.6 2 25.6 6.5 30 12.9 30S24 25.6 24 19.6c0-2.6-.3-3.8-1.6-5.9-.8-1.4-1.2-2.7-1.4-3.7-.2.3-.4.7-.5 1.2-.6 2.1-.5 4.6-.5 4.7 0 .4-.2.9-.7 1-.4.1-.9 0-1.2-.4-.1-.1-1.9-2.6-2.6-4.3-1.6-3.5-1.6-7.3-1.4-9.5-1.6 1-4.2 3.1-5 7.5-.8 4.2.7 8.5.8 8.5.1.3.1.7-.2 1-.2.3-.6.4-1 .3-.1 0-2.9-.8-4.8-3.6-.2-.6-.5-1.2-.8-1.8z"/></svg>