<svg xmlns="http://www.w3.org/2000/svg" width="32" height="32" viewBox="0 0 32 32"><path fill="#1b1b1b" d="M31.853 9.239L27.478.888c-.254-.487-.914-.885-1.464-.885H15.93C15.924.004 15.918 0 15.913 0c-.005 0-.009.004-.015.004h-9.9c-.55 0-1.211.397-1.471.882L.165 9.075c-.259.485-.207 1.247.114 1.694L15.29 31.662c.161.225.376.338.59.338.211 0 .423-.11.585-.331l15.259-20.74c.326-.443.383-1.203.129-1.69zm-2.388-.245h-5.362l2.147-6.139 3.215 6.139zM17.986 2.002h6.441l-1.998 5.71-4.443-5.71zm2.907 6.992h-9.309l4.399-6.31 4.91 6.31zM9.811 8.042l-2.007-6.04h6.218l-4.211 6.04zm11.471 2.951l-5.379 15.378-5.112-15.378h10.491zm-7.624 14.971L2.902 10.993h5.78l4.976 14.971zm9.745-14.971h5.791L18.155 25.997l5.248-15.004zM5.888 2.587l2.129 6.407H2.475l3.413-6.407z"/></svg>