<svg xmlns="http://www.w3.org/2000/svg" width="32" height="32" viewBox="0 0 32 32"><path fill="#1b1b1b" d="M32 16C32 7.505 25.341.556 16.972.049 16.794.029 16.618 0 16.437 0c-.052 0-.104.013-.156.014C16.187.013 16.095 0 16 0 7.178 0 0 7.177 0 16c0 8.821 7.178 16 16 16 .095 0 .187-.013.281-.015.052.002.104.015.156.015.181 0 .357-.029.535-.049C25.341 31.444 32 24.493 32 16zm-2.985 5.148c-.551-.16-1.935-.505-4.366-.79a30.149 30.149 0 0 0 .119-7.829c3.082-.37 4.444-.833 4.535-.866l-.305-.858a13.896 13.896 0 0 1 1.01 5.194c0 1.82-.36 3.554-.993 5.149zM8.936 16c0-1.121.08-2.211.216-3.264 1.616.127 3.551.22 5.821.242v6.945c-2.213.022-4.106.11-5.697.233A25.339 25.339 0 0 1 8.936 16zm8.028-13.854c2.446.711 4.54 4.102 5.479 8.612a78.386 78.386 0 0 1-5.479.229V2.146zm-1.991.03v8.811a82.275 82.275 0 0 1-5.488-.225c.957-4.454 3.068-7.816 5.488-8.586zm0 19.739v7.909c-2.256-.718-4.239-3.69-5.274-7.699a84.98 84.98 0 0 1 5.274-.21zm1.991 7.939v-7.939c2.053.021 3.802.102 5.271.215-1.017 4.062-2.989 7.06-5.271 7.724zm0-9.931v-6.944a80.014 80.014 0 0 0 5.801-.249 26.52 26.52 0 0 1 .209 3.271c0 1.442-.117 2.841-.33 4.162a79.503 79.503 0 0 0-5.68-.24zM28.55 9.814c-.313.097-1.579.45-4.083.746-.565-3.006-1.586-5.567-2.916-7.416a14.084 14.084 0 0 1 6.999 6.67zm-17.34-6.96c-1.621 1.871-2.937 4.557-3.66 7.73-2.249-.245-3.604-.529-4.152-.66a14.06 14.06 0 0 1 7.812-7.07zm-8.568 8.933c.381.104 1.84.464 4.541.764A24.737 24.737 0 0 0 6.939 16c0 1.51.144 2.959.39 4.334-2.317.252-3.744.549-4.385.704A13.92 13.92 0 0 1 1.992 16c0-1.468.229-2.882.65-4.213zm1.173 11.098c.725-.154 2.023-.388 3.942-.589.755 2.794 1.983 5.153 3.454 6.851a14.067 14.067 0 0 1-7.396-6.262zm17.736 5.97c1.198-1.666 2.153-3.902 2.743-6.53 1.97.228 3.211.491 3.837.649a14.08 14.08 0 0 1-6.58 5.881z"/></svg>