<svg xmlns="http://www.w3.org/2000/svg" width="32" height="32" viewBox="0 0 32 32"><path fill="#1b1b1b" d="M16 2.001c3.397 0 7.001 2.863 7.001 4.999v5c0 1.924-.8 5.606-2.946 7.296a2.001 2.001 0 0 0 .402 3.391l8.707 4.129c.068.03.835.159.835 1.23L30 29.999 2.001 30v-2.031c0-.794.597-1.045.835-1.154l8.787-4.146a2 2 0 0 0 .416-3.377C9.961 17.622 8.993 13.953 8.993 12V7c0-2.09 3.639-4.999 7.007-4.999M16 0c-4.418 0-9.009 3.688-9.009 7v5c0 2.185.997 6.604 3.795 8.851L2 24.997s-2 .891-2 2V30a2 2 0 0 0 2 2h28a2 2 0 0 0 2-2v-3.003c0-1.176-2-2-2-2l-8.708-4.13c2.772-2.181 3.71-6.466 3.71-8.867V7c0-3.312-4.584-7-9.002-7z"/></svg>