<svg xmlns="http://www.w3.org/2000/svg" width="32" height="26" viewBox="0 0 32 26">
<path fill="#1b1b1b" d="M30,0H2C0.896,0,0,0.908,0,2.028v18.257 c0,1.12,0.896,2.028,2,2.028h5c0.641,0,1-0.834,1-1.014c0-0.186-0.34-1.028-1-1.028H3.22c-0.668,0-1.21-0.55-1.21-1.228V3.301 c0-0.678,0.542-1.227,1.21-1.227l25.571-0.032c0.668,0,1.21,0.549,1.21,1.227v15.775c0,0.678-0.542,1.228-1.21,1.228h-12.6 l2.375-2.184c0.292-0.284,0.387-0.742,0.095-1.025l-0.171-0.256c-0.293-0.283-0.766-0.283-1.058,0l-4.055,3.754 c-0.006,0.005-0.012,0.007-0.017,0.012l-0.265,0.257c-0.146,0.141-0.219,0.328-0.218,0.514c-0.001,0.188,0.071,0.374,0.218,0.517 l0.265,0.257c0.005,0.005,0.012,0.006,0.017,0.011l3.992,3.66c0.292,0.284,0.765,0.284,1.058,0l0.171-0.255 c0.292-0.283,0.197-0.743-0.095-1.026l-2.41-2.192H30c1.104,0,2-0.908,2-2.028V2.028C32,0.908,31.104,0,30,0z"/>
</svg>
