<svg xmlns="http://www.w3.org/2000/svg" width="32" height="32" viewBox="0 0 32 32" enable-background="new 0 0 32 32">
<path fill-rule="evenodd" fill="#1b1b1b" d="M30,2.993h-8.007V1c0-0.553-0.447-1-1-1s-1,0.447-1,1v1.992h-8V1
c0-0.553-0.447-1-1-1s-1,0.447-1,1v1.992H2c-1.104,0-2,0.896-2,2V30c0,1.104,0.896,2,2,2h28c1.104,0,2-0.896,2-2V4.993
C32,3.889,31.104,2.993,30,2.993z M30,30H2V4.993h7.993v1.008c0,0.553,0.447,1,1,1s1-0.448,1-1V4.993h8v1.008c0,0.553,0.447,1,1,1
s1-0.448,1-1V4.993H30V30z M23,15.996h2c0.553,0,1-0.447,1-1v-2.001c0-0.552-0.447-1-1-1h-2c-0.553,0-1,0.448-1,1v2.001
C22,15.549,22.447,15.996,23,15.996z M23,23.998h2c0.553,0,1-0.447,1-1v-2.001c0-0.552-0.447-1-1-1h-2c-0.553,0-1,0.448-1,1v2.001
C22,23.551,22.447,23.998,23,23.998z M17,19.997h-2c-0.552,0-1,0.448-1,1v2.001c0,0.553,0.448,1,1,1h2c0.553,0,1-0.447,1-1v-2.001
C18,20.445,17.553,19.997,17,19.997z M17,11.995h-2c-0.552,0-1,0.448-1,1v2.001c0,0.553,0.448,1,1,1h2c0.553,0,1-0.447,1-1v-2.001
C18,12.443,17.553,11.995,17,11.995z M9,11.995H7c-0.552,0-1,0.448-1,1v2.001c0,0.553,0.448,1,1,1h2c0.552,0,1-0.447,1-1v-2.001
C10,12.443,9.552,11.995,9,11.995z M9,19.997H7c-0.552,0-1,0.448-1,1v2.001c0,0.553,0.448,1,1,1h2c0.552,0,1-0.447,1-1v-2.001
C10,20.445,9.552,19.997,9,19.997z"/>
</svg>
