<svg xmlns="http://www.w3.org/2000/svg" width="32" height="30" viewBox="0 0 32 30">
<path fill="#3d4042" d="M28,30H4c-2.2,0-4-1.8-4-4V8c0-2.2,1.8-4,4-4h4c0-2.2,1.8-4,4-4h8
	c2.2,0,4,1.8,4,4h4c2.2,0,4,1.8,4,4v18C32,28.2,30.2,30,28,30z M20,2h-8c-1.1,0-2,0.9-2,2h12C22,2.9,21.1,2,20,2z M30,8
	c0-1.1-0.9-2-2-2H4C2.9,6,2,6.9,2,8h4v2H2v2h4v2H2v12c0,1.1,0.9,2,2,2h24c1.1,0,2-0.9,2-2V8z M16,26c-4.4,0-8-3.6-8-8
	c0-4.4,3.6-8,8-8c4.4,0,8,3.6,8,8C24,22.4,20.4,26,16,26z M16,12c-3.3,0-6,2.7-6,6c0,3.3,2.7,6,6,6s6-2.7,6-6C22,14.7,19.3,12,16,12
	z"/>
</svg>
