<svg xmlns="http://www.w3.org/2000/svg" width="32" height="32" viewBox="0 0 32 32">
<path fill-rule="evenodd" fill="#1b1b1b" d="M16,0C7.164,0,0,7.164,0,16c0,8.837,7.164,16,16,16
			c8.837,0,16-7.163,16-16C32,7.164,24.837,0,16,0z M16,30.031C8.28,30.031,2,23.72,2,16S8.28,2,16,2s14,6.28,14,14
			S23.72,30.031,16,30.031z M22.387,10.146l-9.389,9.447L8.77,15.364c-0.39-0.391-1.023-0.391-1.414,0s-0.391,1.024,0,1.414
			l4.95,4.95c0.391,0.391,1.024,0.391,1.415,0c0.023-0.023,0.031-0.053,0.052-0.078L23.801,11.56c0.391-0.39,0.391-1.023,0-1.414
			S22.776,9.755,22.387,10.146z"/>
</svg>
