<svg xmlns="http://www.w3.org/2000/svg" width="32" height="32" viewBox="0 0 32 32">
<path fill-rule="evenodd" fill="#1b1b1b" d="M16,0C7.164,0,0,7.164,0,16c0,8.837,7.164,16,16,16
			c8.837,0,16-7.163,16-16C32,7.164,24.837,0,16,0z M16,30.031C8.28,30.031,2,23.72,2,16S8.28,2,16,2s14,6.28,14,14
			S23.72,30.031,16,30.031z M17,15.594V6c0-0.553-0.447-1-1-1s-1,0.447-1,1v10c0,0.289,0.125,0.544,0.321,0.727
			c0.014,0.016,0.02,0.037,0.035,0.052l4.95,4.95c0.391,0.391,1.023,0.391,1.414,0s0.391-1.023,0-1.414L17,15.594z"/>
</svg>
