<svg xmlns="http://www.w3.org/2000/svg"
width="32px" height="28px" viewBox="0 0 32 28" enable-background="new 0 0 32 28">
<defs>
</defs>
<path fill="#1b1b1b" d="M16,2c7.72,0,14,4.486,14,10s-6.28,10-14,10l-0.473,0.002l-0.355,0.001c-0.549,0-0.909-0.015-1.471-0.099
	l-1.121-0.16l-0.719,0.87c-0.331,0.399-2.017,1.785-3.878,2.677c0.378-1.001,0.658-2.094,0.683-3.175l0.01-0.06v-0.171v-1.224
	l-1.089-0.557C4.036,18.29,2,15.336,2,12C2,6.486,8.28,2,16,2 M16,0C7.163,0,0,5.373,0,12c0,4.127,2.445,7.724,6.674,9.886
	c0,0.025-0.008,0.044-0.008,0.072c0,1.793-1.005,3.765-1.594,4.779h0.001C5.027,26.847,5,26.966,5,27.094
	C5,27.597,5.405,28,5.906,28c0.076,0,0.195-0.016,0.24-0.016c0.01,0,0.017,0,0.016,0.003c3.125-0.511,6.561-3.271,7.245-4.104
	c0.703,0.104,1.177,0.12,1.765,0.12C15.419,24.003,15.687,24,16,24c8.836,0,16-5.372,16-12C32,5.373,24.836,0,16,0L16,0z"/>
</svg>
