<svg xmlns="http://www.w3.org/2000/svg" width="32" height="22" viewBox="0 0 32 22">
		<path fill="#1b1b1b" d="M16.108,5.054c-3.309,0-5.991,2.682-5.991,5.99c0,3.308,2.683,5.99,5.991,5.99s5.99-2.683,5.99-5.99
			C22.099,7.736,19.417,5.054,16.108,5.054z M16.108,15.037c-2.202,0-4.04-1.835-4.04-4.037c0-2.201,1.792-3.993,3.994-3.993
			S20.057,8.799,20.057,11C20.057,13.202,18.311,15.037,16.108,15.037z M31.966,10.768c-0.012-0.05-0.006-0.104-0.021-0.153
			c-0.006-0.021-0.02-0.033-0.026-0.051c-0.011-0.027-0.008-0.062-0.022-0.089C28.991,3.827,22.732,0,16.063,0
			S3.008,3.82,0.103,10.469c-0.013,0.027-0.011,0.057-0.021,0.089c-0.007,0.018-0.021,0.029-0.028,0.047
			c-0.016,0.051-0.009,0.104-0.019,0.154C0.017,10.849,0,10.937,0,11.026c0,0.093,0.017,0.179,0.036,0.269
			c0.01,0.05,0.003,0.104,0.019,0.152c0.006,0.022,0.021,0.032,0.028,0.052c0.01,0.028,0.008,0.062,0.021,0.089
			C3.008,18.236,9.33,22,16,22c6.671,0,12.991-3.757,15.896-10.404c0.015-0.028,0.012-0.059,0.022-0.09
			c0.007-0.018,0.021-0.03,0.026-0.05c0.016-0.048,0.01-0.102,0.021-0.152C31.983,11.215,32,11.127,32,11.035
			C32,10.945,31.983,10.858,31.966,10.768z M16,20.003c-5.657,0-11.225-2.98-13.96-8.975c2.709-5.973,8.352-9.032,14.023-9.032
			c5.669,0,11.186,3.063,13.896,9.039C27.25,17.007,21.671,20.003,16,20.003z"/>
</svg>
