<svg xmlns="http://www.w3.org/2000/svg" width="26" height="32" viewBox="0 0 26 32">
<path fill="#3d4042" d="M12.9,32C5.3,32,0,26.8,0,19.6c0-3.8,2.3-8,2.4-8.1
	c0.2-0.4,0.6-0.5,1-0.5c0.4,0.1,0.7,0.3,0.8,0.7c0,0,0.6,2.3,1.4,3.6c0.5,0.9,1.1,1.5,1.7,1.9C7,15.3,6.6,12.6,7.2,9.8
	C8.6,2,14.7,0.1,15,0c0.3-0.1,0.7,0,1,0.2c0.3,0.2,0.4,0.6,0.3,0.9c0,0.1-1,5.5,1.1,10.1c0.2,0.4,0.5,0.9,0.8,1.4
	c0.1-0.7,0.2-1.4,0.4-2.1c0.8-2.8,2.8-3.7,2.9-3.7c0.3-0.2,0.7-0.1,1,0.1c0.3,0.2,0.4,0.6,0.4,1c0,0.1-0.3,1.9,1.3,4.6
	c1.4,2.4,1.9,4,1.9,6.9C26,26.8,20.5,32,12.9,32z M3.1,14.6C2.6,16,2,17.8,2,19.6C2,25.6,6.5,30,12.9,30C19.3,30,24,25.6,24,19.6
	c0-2.6-0.3-3.8-1.6-5.9C21.6,12.3,21.2,11,21,10c-0.2,0.3-0.4,0.7-0.5,1.2c-0.6,2.1-0.5,4.6-0.5,4.7c0,0.4-0.2,0.9-0.7,1
	c-0.4,0.1-0.9,0-1.2-0.4c-0.1-0.1-1.9-2.6-2.6-4.3c-1.6-3.5-1.6-7.3-1.4-9.5c-1.6,1-4.2,3.1-5,7.5c-0.8,4.2,0.7,8.5,0.8,8.5
	c0.1,0.3,0.1,0.7-0.2,1c-0.2,0.3-0.6,0.4-1,0.3c-0.1,0-2.9-0.8-4.8-3.6C3.7,15.8,3.4,15.2,3.1,14.6z"/>
</svg>
