<svg xmlns="http://www.w3.org/2000/svg" width="32" height="25" viewBox="0 0 32 25">
<path fill="#1b1b1b" d="M7,0H1C0.448,0,0,0.448,0,1v6c0,0.552,0.448,1,1,1s1-0.448,1-1V2
h5c0.552,0,1-0.448,1-1S7.552,0,7,0z M31,17c-0.553,0-1,0.447-1,1v5h-5c-0.553,0-1,0.447-1,1s0.447,1,1,1h6c0.553,0,1-0.447,1-1
v-6C32,17.447,31.553,17,31,17z M7,23H2v-5c0-0.553-0.448-1-1-1s-1,0.447-1,1v6c0,0.553,0.448,1,1,1h6c0.552,0,1-0.447,1-1
S7.552,23,7,23z M31,0h-6c-0.553,0-1,0.448-1,1s0.447,1,1,1h5v5c0,0.552,0.447,1,1,1s1-0.448,1-1V1C32,0.448,31.553,0,31,0z"/>
</svg>
