<svg xmlns="http://www.w3.org/2000/svg" width="32" height="32" viewBox="0 0 32 32">
<path fill="#1b1b1b" d="M31.853,9.239l-4.375-8.351c-0.254-0.487-0.914-0.885-1.464-0.885H15.93C15.924,0.004,15.918,0,15.913,0
			c-0.005,0-0.009,0.004-0.015,0.004h-9.9c-0.55,0-1.211,0.397-1.471,0.882L0.165,9.075c-0.259,0.485-0.207,1.247,0.114,1.694
			L15.29,31.662C15.451,31.887,15.666,32,15.88,32c0.211,0,0.423-0.11,0.585-0.331l15.259-20.74
			C32.05,10.486,32.107,9.726,31.853,9.239z M29.465,8.994h-5.362l2.147-6.139L29.465,8.994z M17.986,2.002h6.441l-1.998,5.71
			L17.986,2.002z M20.893,8.994h-9.309l4.399-6.31L20.893,8.994z M9.811,8.042l-2.007-6.04h6.218L9.811,8.042z M21.282,10.993
			l-5.379,15.378l-5.112-15.378H21.282z M13.658,25.964L2.902,10.993h5.78L13.658,25.964z M23.403,10.993h5.791L18.155,25.997
			L23.403,10.993z M5.888,2.587l2.129,6.407H2.475L5.888,2.587z"/>
</svg>
