<svg xmlns="http://www.w3.org/2000/svg" width="32" height="32" viewBox="0 0 32 32">
<path fill="#1b1b1b" d="M32,16c0-8.495-6.659-15.444-15.028-15.951C16.794,0.029,16.618,0,16.437,0
			c-0.052,0-0.104,0.013-0.156,0.014C16.187,0.013,16.095,0,16,0C7.178,0,0,7.177,0,16c0,8.821,7.178,16,16,16
			c0.095,0,0.187-0.013,0.281-0.015C16.333,31.987,16.385,32,16.437,32c0.181,0,0.357-0.029,0.535-0.049
			C25.341,31.444,32,24.493,32,16z M29.015,21.148c-0.551-0.16-1.935-0.505-4.366-0.79c0.202-1.383,0.318-2.84,0.318-4.358
			c0-1.197-0.071-2.355-0.199-3.471c3.082-0.37,4.444-0.833,4.535-0.866l-0.305-0.858c0.646,1.608,1.01,3.358,1.01,5.194
			C30.008,17.819,29.648,19.553,29.015,21.148z M8.936,16c0-1.121,0.08-2.211,0.216-3.264c1.616,0.127,3.551,0.22,5.821,0.242v6.945
			c-2.213,0.022-4.106,0.11-5.697,0.233C9.056,18.837,8.936,17.439,8.936,16z M16.964,2.146c2.446,0.711,4.54,4.102,5.479,8.612
			c-1.508,0.121-3.324,0.208-5.479,0.229V2.146z M14.973,2.176v8.811c-2.131-0.021-3.956-0.107-5.488-0.225
			C10.442,6.308,12.553,2.946,14.973,2.176z M14.973,21.915v7.909c-2.256-0.718-4.239-3.69-5.274-7.699
			C11.187,22.016,12.939,21.937,14.973,21.915z M16.964,29.854v-7.939c2.053,0.021,3.802,0.102,5.271,0.215
			C21.218,26.192,19.246,29.19,16.964,29.854z M16.964,19.923v-6.944c2.283-0.022,4.206-0.117,5.801-0.249
			c0.131,1.055,0.209,2.147,0.209,3.271c0,1.442-0.117,2.841-0.33,4.162C21.073,20.035,19.19,19.944,16.964,19.923z M28.55,9.814
			c-0.313,0.097-1.579,0.45-4.083,0.746c-0.565-3.006-1.586-5.567-2.916-7.416C24.601,4.466,27.08,6.846,28.55,9.814z M11.21,2.854
			c-1.621,1.871-2.937,4.557-3.66,7.73c-2.249-0.245-3.604-0.529-4.152-0.66C4.978,6.662,7.778,4.108,11.21,2.854z M2.642,11.787
			c0.381,0.104,1.84,0.464,4.541,0.764C7.027,13.66,6.939,14.811,6.939,16c0,1.51,0.144,2.959,0.39,4.334
			c-2.317,0.252-3.744,0.549-4.385,0.704C2.338,19.473,1.992,17.777,1.992,16C1.992,14.532,2.221,13.118,2.642,11.787z
			 M3.815,22.885c0.725-0.154,2.023-0.388,3.942-0.589c0.755,2.794,1.983,5.153,3.454,6.851C8.066,27.997,5.447,25.762,3.815,22.885
			z M21.551,28.855c1.198-1.666,2.153-3.902,2.743-6.53c1.97,0.228,3.211,0.491,3.837,0.649
			C26.63,25.575,24.326,27.652,21.551,28.855z"/>
</svg>
