<svg xmlns="http://www.w3.org/2000/svg" width="32" height="32" viewBox="0 0 32 32">
<path fill="#1b1b1b" d="M16,2.001c3.397,0,7.001,2.863,7.001,4.999v5c0,1.924-0.8,5.606-2.946,7.296
	c-0.548,0.431-0.832,1.116-0.75,1.809s0.52,1.291,1.152,1.582l8.707,4.129c0.068,0.03,0.835,0.159,0.835,1.23L30,29.999L2.001,30
	v-2.031c0-0.794,0.597-1.045,0.835-1.154l8.787-4.146c0.63-0.29,1.064-0.885,1.149-1.572c0.085-0.688-0.193-1.371-0.733-1.805
	C9.961,17.622,8.993,13.953,8.993,12V7C8.993,4.91,12.632,2.001,16,2.001 M16,0c-4.418,0-9.009,3.688-9.009,7v5
	c0,2.185,0.997,6.604,3.795,8.851L2,24.997c0,0-2,0.891-2,2V30c0,1.105,0.895,2,2,2h28c1.105,0,2-0.895,2-2v-3.003c0-1.176-2-2-2-2
	l-8.708-4.13c2.772-2.181,3.71-6.466,3.71-8.867V7C25.002,3.688,20.418,0,16,0L16,0z"/>
</svg>
